<svg xmlns="http://www.w3.org/2000/svg" viewBox="0 0 256 256">
  <title>灵机 Liki</title>
  <defs>
    <radialGradient id="glow" cx="50%" cy="85%" r="55%" fx="50%" fy="85%">
      <stop offset="0%" stop-color="#FFBF00" stop-opacity="0.25"/>
      <stop offset="100%" stop-color="#FFBF00" stop-opacity="0"/>
    </radialGradient>
  </defs>
  <rect width="256" height="256" rx="48" fill="#0c1a2e"/>
  <rect width="256" height="256" rx="48" fill="url(#glow)"/>
  <g transform="translate(41.3,199.1) scale(0.1733,-0.1733)">
    <path d="M720 677Q725 677 725.5 676.0Q726 675 726 670Q726 661 721 634Q716 601 714.0 565.0Q712 529 712 465Q712 422 711.5 401.0Q711 380 707 368Q704 350 699 345Q696 342 682 342Q666 342 647 346Q626 350 570 350Q489 350 376 341Q316 337 276 328Q252 323 251 325Q247 339 238.5 376.5Q230 414 231 415Q234 413 239 412Q245 410 293 410L396 411Q545 412 570 416L617 422L639 423V442Q639 460 638.0 464.5Q637 469 631.5 470.0Q626 471 606 471Q547 471 456 464Q357 458 321 458H306L304 470Q304 476 299 496L295 512L328 513Q350 513 477.5 520.0Q605 527 625 529L637 530V593H555Q481 593 448.5 590.5Q416 588 365 578Q312 567 301 567H291L287 586L276 633L270 663L312 658Q366 654 383 654Q407 654 423 655Q524 657 639 670Q663 673 677.5 674.0Q692 675 697 676ZM717 341Q718 338 724.0 327.0Q730 316 739 297Q773 233 762 225Q753 220 676.5 209.0Q600 198 600 202Q600 203 624 227Q658 260 697 321Q708 338 711.0 341.0Q714 344 717 341ZM445 310 461 309 497 303Q509 301 513.5 299.0Q518 297 518 292Q518 287 510 268Q501 246 501 239Q501 236 504 231Q508 226 526.0 214.0Q544 202 553 199Q556 197 566.0 192.0Q576 187 583 182Q601 172 627 161Q637 159 651.5 152.0Q666 145 670 143Q722 117 763 106Q787 100 810 100Q859 100 922 131Q926 133 929.0 135.0Q932 137 933.5 136.5Q935 136 935 134Q935 123 907.0 80.5Q879 38 856 14Q836 -7 821.5 -14.5Q807 -22 785 -22Q770 -22 763.5 -20.5Q757 -19 743 -11Q726 -3 701 15Q663 44 603.0 84.5Q543 125 521 136Q492 153 487 153Q484 153 466 131Q393 42 351 17Q330 6 285.5 -6.5Q241 -19 204 -25Q175 -28 144 -27H109L95 21Q64 134 66 139Q66 139 101 117Q128 98 141.5 90.5Q155 83 174 76Q201 67 230 67Q281 67 331 95Q349 107 370.0 127.0Q391 147 402 164Q419 190 431.0 224.5Q443 259 444 290ZM270 279Q272 279 280 269L340 193Q364 161 363 160Q351 160 321.0 163.0Q291 166 264 170Q232 175 231 175Q219 177 217.5 178.0Q216 179 219 184L235 219Q253 255 258 263Q262 269 265.0 273.5Q268 278 270 279Z" fill="#FFBF00"/>
  </g>
</svg>