<svg xmlns="http://www.w3.org/2000/svg" viewBox="0 0 256 256">
  <rect width="256" height="256" rx="48" fill="#1e293b"/>
  <path d="m 121.03,60.9 q 1.36,-2.04 1.7,-2.04 0.17,0 3.91,4.25 3.74,4.25 6.29,7.31 9.18,11.39 19.72,18.19 12.58,8.16 23.63,11.05 3.23,0.85 9.52,1.53 6.29,0.51 13.09,0.51 4.25,0 4.25,0.34 0,0.68 -2.38,4.08 -2.21,3.23 -4.59,5.95 -2.72,3.23 -6.29,6.63 -3.57,3.4 -4.59,3.74 -1.02,0.17 -9.01,-3.74 -6.63,-3.4 -9.52,-5.27 -2.72,-2.04 -16.66,-13.26 Q 128.34,83 125.79,80.45 l -1.19,-1.02 -5.1,5.27 q -4.59,4.93 -9.35,9.35 -4.76,4.42 -7.14,5.78 l -4.76,3.23 q -4.42,3.57 -15.81,9.69 -11.22,6.12 -17,7.99 -2.04,0.85 -4.59,0.51 H 58.3 l -1.53,-4.59 -2.89,-8.67 -1.19,-4.59 1.53,0.34 q 1.7,0.34 7.65,0.34 8.67,-0.17 14.96,-2.55 6.46,-2.55 15.81,-9.52 12.41,-9.01 19.21,-19.21 0.85,-1.53 2.38,-3.57 1.7,-2.21 2.38,-3.06 z m 34.68,41.99 q 0.68,-0.34 -6.29,11.22 l -3.23,4.42 -21.76,0.34 q -8.5,0 -14.96,0.17 -6.46,0.17 -9.35,0.34 l -3.23,0.17 -2.21,-3.23 q -2.55,-4.08 -4.42,-6.97 -1.7,-3.06 -1.19,-3.06 h 0.17 q 0.68,0 3.23,0.85 4.76,1.02 8.16,1.53 3.57,0.34 10.37,0.34 10.88,-0.34 21.42,-1.53 10.71,-1.19 17.34,-2.89 1.36,-0.51 2.38,-0.85 1.19,-0.34 2.04,-0.51 z m 10.37,20.91 q 1.02,0 1.36,0.17 0.51,0.17 0.68,0.68 0.34,1.19 0.68,22.1 l 0.17,21.42 -1.19,-0.34 q -0.51,0 -5.1,-0.17 -4.59,-0.17 -10.88,-0.17 -5.27,-0.17 -11.05,-0.17 -4.08,0 -4.42,0.34 -0.68,0.68 -0.68,7.14 0,2.55 0.51,13.77 0.17,2.38 0.17,5.27 0,2.55 -0.17,2.72 -0.68,0.68 -8.33,0.68 -4.08,0 -6.12,-0.17 -1.87,-0.17 -1.87,-0.51 0,-1.36 1.02,-3.4 1.36,-4.08 1.87,-12.24 0.68,-8.16 1.02,-24.31 v -5.78 q 0,-21.59 -0.85,-24.48 -0.17,-0.51 14.28,-0.68 9.52,-0.17 17.85,-0.68 8.33,-0.51 9.01,-1.02 z m -9.01,11.22 h -22.1 v 22.95 l 4.42,0.34 11.39,0.17 h 6.97 v -6.29 q 0,-5.95 -0.34,-11.73 z m -41.65,-9.01 h 0.85 V 134 q 0,7.31 -0.34,16.83 -0.34,9.52 -0.68,10.88 -0.17,0.85 -2.72,1.36 -2.55,0.34 -9.35,0.34 l -4.59,0.17 q -3.74,0 -3.74,0.17 l -8.33,0.34 q -5.61,0 -10.37,0.68 l -2.55,0.17 q -0.17,0 -0.17,-6.97 -0.17,-9.52 -0.85,-19.55 -0.68,-10.03 -1.36,-10.71 -0.34,-0.34 -0.34,-0.51 0,-0.17 0.51,-0.17 1.02,0 1.87,0.17 2.89,0.68 20.74,0.68 7.82,0 9.69,-0.17 3.23,-0.68 6.12,-0.68 0.34,-0.17 1.19,-0.17 0.85,-0.17 1.87,-0.51 z m -12.07,11.22 H 94 q -4.93,0 -7.31,0.17 -2.21,0 -2.38,0.51 -0.17,0.17 -0.17,3.4 0,9.69 0.34,10.37 0.51,0.68 10.2,0.68 9.69,0 9.69,-0.51 0.17,-0.17 -0.17,-4.25 -0.17,-4.08 -0.51,-7.99 z" fill="#fbbf24" transform="translate(0,0)"/>
</svg>